<svg width="20" height="20" viewBox="0 0 20 20" fill="none" xmlns="http://www.w3.org/2000/svg">
<g id="mdi:account-clock-outline" clip-path="url(#clip0_1006_3039)">
<path id="Vector" d="M13.334 11.6668H14.584V14.0168L16.6173 15.1918L15.9923 16.2752L13.334 14.7418V11.6668ZM14.1673 10.0002C13.0622 10.0002 12.0024 10.4391 11.221 11.2206C10.4396 12.002 10.0007 13.0618 10.0007 14.1668C10.0007 15.2719 10.4396 16.3317 11.221 17.1131C12.0024 17.8945 13.0622 18.3335 14.1673 18.3335C15.2724 18.3335 16.3322 17.8945 17.1136 17.1131C17.895 16.3317 18.334 15.2719 18.334 14.1668C18.334 13.0618 17.895 12.002 17.1136 11.2206C16.3322 10.4391 15.2724 10.0002 14.1673 10.0002ZM14.1673 8.3335C15.7144 8.3335 17.1981 8.94808 18.2921 10.042C19.3861 11.136 20.0007 12.6197 20.0007 14.1668C20.0007 15.7139 19.3861 17.1977 18.2921 18.2916C17.1981 19.3856 15.7144 20.0002 14.1673 20.0002C11.8423 20.0002 9.83398 18.6335 8.89232 16.6668H0.833984V14.1668C0.833984 11.9502 5.27565 10.8335 7.50065 10.8335C8.00065 10.8335 8.61732 10.8918 9.26732 11.0002C9.79588 10.1813 10.5214 9.50817 11.3774 9.0423C12.2335 8.57642 13.1927 8.33272 14.1673 8.3335ZM8.33398 14.1668C8.33398 13.5835 8.41732 13.0168 8.57565 12.5002C8.22565 12.4418 7.85898 12.4168 7.50065 12.4168C5.02565 12.4168 2.41732 13.6335 2.41732 14.1668V15.0835H8.40898C8.35885 14.7805 8.33377 14.4739 8.33398 14.1668ZM7.50065 3.3335C8.38471 3.3335 9.23255 3.68469 9.85767 4.30981C10.4828 4.93493 10.834 5.78277 10.834 6.66683C10.834 7.55088 10.4828 8.39873 9.85767 9.02385C9.23255 9.64897 8.38471 10.0002 7.50065 10.0002C6.6166 10.0002 5.76875 9.64897 5.14363 9.02385C4.51851 8.39873 4.16732 7.55088 4.16732 6.66683C4.16732 5.78277 4.51851 4.93493 5.14363 4.30981C5.76875 3.68469 6.6166 3.3335 7.50065 3.3335ZM7.50065 4.91683C7.03652 4.91683 6.5914 5.1012 6.26321 5.42939C5.93503 5.75758 5.75065 6.2027 5.75065 6.66683C5.75065 7.13096 5.93503 7.57608 6.26321 7.90427C6.5914 8.23246 7.03652 8.41683 7.50065 8.41683C7.96478 8.41683 8.4099 8.23246 8.73809 7.90427C9.06628 7.57608 9.25065 7.13096 9.25065 6.66683C9.25065 6.2027 9.06628 5.75758 8.73809 5.42939C8.4099 5.1012 7.96478 4.91683 7.50065 4.91683Z" fill="white"/>
</g>
<defs>
<clipPath id="clip0_1006_3039">
<rect width="20" height="20" fill="white"/>
</clipPath>
</defs>
</svg>
