<svg width="25" height="22" viewBox="0 0 25 22" fill="none" xmlns="http://www.w3.org/2000/svg">
<g id="vuesax/linear/profile-2user">
<g id="vuesax/linear/profile-2user_2">
<g id="profile-2user">
<path id="Vector" d="M12.6341 11.0582C12.5508 11.0498 12.4508 11.0498 12.3591 11.0582C10.3758 10.9915 8.80078 9.3665 8.80078 7.3665C8.80078 5.32484 10.4508 3.6665 12.5008 3.6665C14.5424 3.6665 16.2008 5.32484 16.2008 7.3665C16.1924 9.3665 14.6174 10.9915 12.6341 11.0582Z" fill="white"/>
<path id="Vector_2" d="M8.46758 14.133C6.45091 15.483 6.45091 17.683 8.46758 19.0247C10.7592 20.558 14.5176 20.558 16.8092 19.0247C18.8259 17.6747 18.8259 15.4747 16.8092 14.133C14.5259 12.608 10.7676 12.608 8.46758 14.133Z" fill="white"/>
<path id="Vector_3" opacity="0.4" d="M18.6341 8.05817C18.5508 8.04984 18.4508 8.04984 18.3591 8.05817C16.3758 7.9915 14.8008 6.3665 14.8008 4.3665C14.8008 2.32484 16.4508 0.666504 18.5008 0.666504C20.5424 0.666504 22.2008 2.32484 22.2008 4.3665C22.1924 6.3665 20.6174 7.9915 18.6341 8.05817Z" fill="white"/>
<path id="Vector_4" opacity="0.4" d="M14.4676 11.133C12.4509 12.483 12.4509 14.683 14.4676 16.0247C16.7592 17.558 20.5176 17.558 22.8092 16.0247C24.8259 14.6747 24.8259 12.4747 22.8092 11.133C20.5259 9.60801 16.7676 9.60801 14.4676 11.133Z" fill="white"/>
<path id="Vector_5" opacity="0.4" d="M6.63411 8.05817C6.55078 8.04984 6.45078 8.04984 6.35911 8.05817C4.37578 7.9915 2.80078 6.3665 2.80078 4.3665C2.80078 2.32484 4.45078 0.666504 6.50078 0.666504C8.54245 0.666504 10.2008 2.32484 10.2008 4.3665C10.1924 6.3665 8.61745 7.9915 6.63411 8.05817Z" fill="white"/>
<path id="Vector_6" opacity="0.4" d="M2.46758 11.133C0.450911 12.483 0.450911 14.683 2.46758 16.0247C4.75924 17.558 8.51758 17.558 10.8092 16.0247C12.8259 14.6747 12.8259 12.4747 10.8092 11.133C8.52591 9.60801 4.76758 9.60801 2.46758 11.133Z" fill="white"/>
</g>
</g>
</g>
</svg>
