<svg width="21" height="17" viewBox="0 0 21 17" fill="none" xmlns="http://www.w3.org/2000/svg">
<g id="Group">
<path id="Vector" d="M3.82143 4.78571C3.63199 4.78571 3.45031 4.86097 3.31635 4.99492C3.1824 5.12888 3.10714 5.31056 3.10714 5.5C3.10714 5.68944 3.1824 5.87112 3.31635 6.00508C3.45031 6.13903 3.63199 6.21429 3.82143 6.21429H13.8214C14.0109 6.21429 14.1926 6.13903 14.3265 6.00508C14.4605 5.87112 14.5357 5.68944 14.5357 5.5C14.5357 5.31056 14.4605 5.12888 14.3265 4.99492C14.1926 4.86097 14.0109 4.78571 13.8214 4.78571H3.82143ZM3.82143 7.64286C3.63199 7.64286 3.45031 7.71811 3.31635 7.85207C3.1824 7.98602 3.10714 8.1677 3.10714 8.35714V11.2143C3.10714 11.4037 3.1824 11.5854 3.31635 11.7194C3.45031 11.8533 3.63199 11.9286 3.82143 11.9286H6.67857C6.86801 11.9286 7.04969 11.8533 7.18365 11.7194C7.3176 11.5854 7.39286 11.4037 7.39286 11.2143V8.35714C7.39286 8.1677 7.3176 7.98602 7.18365 7.85207C7.04969 7.71811 6.86801 7.64286 6.67857 7.64286H3.82143ZM4.53571 10.5V9.07143H5.96429V10.5H4.53571ZM9.53571 7.64286C9.34627 7.64286 9.16459 7.71811 9.03064 7.85207C8.89668 7.98602 8.82143 8.1677 8.82143 8.35714C8.82143 8.54658 8.89668 8.72826 9.03064 8.86222C9.16459 8.99617 9.34627 9.07143 9.53571 9.07143H13.8214C14.0109 9.07143 14.1926 8.99617 14.3265 8.86222C14.4605 8.72826 14.5357 8.54658 14.5357 8.35714C14.5357 8.1677 14.4605 7.98602 14.3265 7.85207C14.1926 7.71811 14.0109 7.64286 13.8214 7.64286H9.53571ZM9.53571 10.5C9.34627 10.5 9.16459 10.5753 9.03064 10.7092C8.89668 10.8432 8.82143 11.0248 8.82143 11.2143C8.82143 11.4037 8.89668 11.5854 9.03064 11.7194C9.16459 11.8533 9.34627 11.9286 9.53571 11.9286H13.8214C14.0109 11.9286 14.1926 11.8533 14.3265 11.7194C14.4605 11.5854 14.5357 11.4037 14.5357 11.2143C14.5357 11.0248 14.4605 10.8432 14.3265 10.7092C14.1926 10.5753 14.0109 10.5 13.8214 10.5H9.53571ZM0.25 3.35714C0.25 2.59938 0.55102 1.87266 1.08684 1.33684C1.62266 0.801019 2.34938 0.5 3.10714 0.5H14.5357C15.2935 0.5 16.0202 0.801019 16.556 1.33684C17.0918 1.87266 17.3929 2.59938 17.3929 3.35714C18.1506 3.35714 18.8773 3.65816 19.4132 4.19398C19.949 4.7298 20.25 5.45652 20.25 6.21429V12.6429C20.25 13.5901 19.8737 14.4985 19.204 15.1682C18.5342 15.838 17.6258 16.2143 16.6786 16.2143H3.82143C2.87423 16.2143 1.96582 15.838 1.29605 15.1682C0.626274 14.4985 0.25 13.5901 0.25 12.6429V3.35714ZM16.6786 12.6429C16.4891 12.6429 16.3074 12.5676 16.1735 12.4336C16.0395 12.2997 15.9643 12.118 15.9643 11.9286V3.35714C15.9643 2.97826 15.8138 2.6149 15.5459 2.34699C15.278 2.07908 14.9146 1.92857 14.5357 1.92857H3.10714C2.72826 1.92857 2.3649 2.07908 2.09699 2.34699C1.82908 2.6149 1.67857 2.97826 1.67857 3.35714V12.6429C1.67857 13.2112 1.90434 13.7562 2.3062 14.1581C2.70806 14.5599 3.25311 14.7857 3.82143 14.7857H16.6786C17.2469 14.7857 17.7919 14.5599 18.1938 14.1581C18.5957 13.7562 18.8214 13.2112 18.8214 12.6429V6.21429C18.8214 5.83541 18.6709 5.47204 18.403 5.20413C18.1351 4.93622 17.7717 4.78571 17.3929 4.78571V11.9286C17.3929 12.118 17.3176 12.2997 17.1836 12.4336C17.0497 12.5676 16.868 12.6429 16.6786 12.6429Z" fill="white"/>
</g>
</svg>
