<svg width="20" height="20" viewBox="0 0 20 20" fill="none" xmlns="http://www.w3.org/2000/svg">
<rect width="20" height="20" fill="#E5E5E5"/>
<g id="&#236;&#160;&#132;&#236;&#155;&#144;&#234;&#180;&#128;&#235;&#166;&#172;-&#237;&#131;&#128;&#236;&#132;&#157;">
<rect x="-20" y="-191" width="1440" height="860" rx="30" fill="#101010"/>
<g id="&#235;&#169;&#148;&#235;&#137;&#180;">
<g id="&#235;&#169;&#148;&#235;&#137;&#180;&#236;&#132;&#160;&#237;&#131;&#157;&#235;&#176;&#148;">
<path id="Rectangle 53" d="M-12 9.5C-12 -1.82184 -2.82184 -11 8.5 -11H258V30H8.50001C-2.82183 30 -12 20.8218 -12 9.5Z" fill="white"/>
</g>
<g id="&#236;&#160;&#132;&#236;&#155;&#144;&#234;&#180;&#128;&#235;&#166;&#172;">
<g id="vuesax/linear/setting-4">
<g id="vuesax/linear/setting-4_2">
<g id="setting-4">
<path id="Vector" d="M18.334 5.4165H13.334" stroke="#5F66E9" stroke-width="1.5" stroke-miterlimit="10" stroke-linecap="round" stroke-linejoin="round"/>
<path id="Vector_2" d="M4.99935 5.4165H1.66602" stroke="#5F66E9" stroke-width="1.5" stroke-miterlimit="10" stroke-linecap="round" stroke-linejoin="round"/>
<path id="Vector_3" d="M8.33268 8.33333C9.94351 8.33333 11.2493 7.0275 11.2493 5.41667C11.2493 3.80584 9.94351 2.5 8.33268 2.5C6.72185 2.5 5.41602 3.80584 5.41602 5.41667C5.41602 7.0275 6.72185 8.33333 8.33268 8.33333Z" stroke="#5F66E9" stroke-width="1.5" stroke-miterlimit="10" stroke-linecap="round" stroke-linejoin="round"/>
<path id="Vector_4" d="M18.3333 14.5835H15" stroke="#5F66E9" stroke-width="1.5" stroke-miterlimit="10" stroke-linecap="round" stroke-linejoin="round"/>
<path id="Vector_5" d="M6.66602 14.5835H1.66602" stroke="#5F66E9" stroke-width="1.5" stroke-miterlimit="10" stroke-linecap="round" stroke-linejoin="round"/>
<path id="Vector_6" d="M11.6667 17.4998C13.2775 17.4998 14.5833 16.194 14.5833 14.5832C14.5833 12.9723 13.2775 11.6665 11.6667 11.6665C10.0558 11.6665 8.75 12.9723 8.75 14.5832C8.75 16.194 10.0558 17.4998 11.6667 17.4998Z" stroke="#5F66E9" stroke-width="1.5" stroke-miterlimit="10" stroke-linecap="round" stroke-linejoin="round"/>
</g>
</g>
</g>
</g>
</g>
</g>
</svg>
