<svg width="17" height="17" viewBox="0 0 17 17" fill="none" xmlns="http://www.w3.org/2000/svg">
<path d="M8.52116 5.81438e-09C9.21315 -4.53024e-05 9.87892 0.264707 10.3819 0.739946C10.8849 1.21518 11.187 1.86488 11.2261 2.55576L11.2303 2.70914H15.6066C15.765 2.70918 15.9175 2.76936 16.0332 2.8775C16.149 2.98563 16.2193 3.13368 16.2301 3.29171C16.2409 3.44974 16.1913 3.60598 16.0914 3.72885C15.9914 3.85173 15.8485 3.93208 15.6916 3.95367L15.6066 3.95951H14.9431L13.8761 14.8127C13.8226 15.3538 13.5786 15.8583 13.1875 16.236C12.7965 16.6138 12.2839 16.8403 11.7413 16.875L11.5946 16.88H5.44775C4.90381 16.88 4.3776 16.6865 3.96315 16.3342C3.54871 15.982 3.27304 15.4938 3.18542 14.9569L3.16624 14.8119L2.09843 3.95951H1.43573C1.28466 3.9595 1.13869 3.90479 1.02483 3.80549C0.910977 3.70619 0.836928 3.56902 0.816382 3.41935L0.810547 3.33432C0.810553 3.18324 0.865265 3.03728 0.964565 2.92342C1.06386 2.80957 1.20103 2.73552 1.35071 2.71497L1.43573 2.70914H5.81203C5.81203 1.99063 6.09745 1.30155 6.60552 0.793487C7.11358 0.285426 7.80266 5.81438e-09 8.52116 5.81438e-09ZM13.6869 3.95951H3.35463L4.41078 14.6894C4.43417 14.9288 4.53967 15.1527 4.70939 15.3232C4.87911 15.4937 5.10258 15.6002 5.34189 15.6246L5.44775 15.6296H11.5946C12.0947 15.6296 12.519 15.2754 12.6157 14.7944L12.6324 14.6894L13.686 3.95951H13.6869ZM9.97993 6.25185C10.131 6.25186 10.277 6.30657 10.3908 6.40587C10.5047 6.50517 10.5787 6.64234 10.5993 6.79201L10.6051 6.87704V12.7121C10.6051 12.8705 10.5449 13.023 10.4368 13.1387C10.3286 13.2545 10.1806 13.3248 10.0225 13.3356C9.86451 13.3464 9.70827 13.2968 9.5854 13.1969C9.46252 13.0969 9.38217 12.954 9.36058 12.7971L9.35474 12.7121V6.87704C9.35474 6.71123 9.42061 6.55221 9.53786 6.43496C9.6551 6.31772 9.81412 6.25185 9.97993 6.25185ZM7.0624 6.25185C7.21347 6.25186 7.35944 6.30657 7.4733 6.40587C7.58715 6.50517 7.6612 6.64234 7.68175 6.79201L7.68758 6.87704V12.7121C7.68754 12.8705 7.62736 13.023 7.51922 13.1387C7.41108 13.2545 7.26304 13.3248 7.10501 13.3356C6.94698 13.3464 6.79074 13.2968 6.66787 13.1969C6.54499 13.0969 6.46464 12.954 6.44305 12.7971L6.43721 12.7121V6.87704C6.43721 6.71123 6.50308 6.55221 6.62033 6.43496C6.73757 6.31772 6.89659 6.25185 7.0624 6.25185ZM8.52116 1.25037C8.15506 1.25038 7.80235 1.38805 7.53305 1.63605C7.26374 1.88405 7.09752 2.22424 7.0674 2.5891L7.0624 2.70914H9.97993C9.97993 2.32225 9.82624 1.9512 9.55267 1.67763C9.2791 1.40406 8.90805 1.25037 8.52116 1.25037Z" fill="#5F66E9"/>
</svg>
