<svg width="19" height="19" viewBox="0 0 19 19" fill="none" xmlns="http://www.w3.org/2000/svg">
<path d="M8.5 1.20947H6.83333C2.66667 1.20947 1 2.87614 1 7.04281V12.0428C1 16.2095 2.66667 17.8761 6.83333 17.8761H11.8333C16 17.8761 17.6667 16.2095 17.6667 12.0428V10.3761" stroke="#5F66E9" stroke-linecap="round" stroke-linejoin="round"/>
<path d="M12.6996 2.05936L6.13291 8.62602C5.88291 8.87602 5.63291 9.36769 5.58291 9.72602L5.22457 12.2344C5.09124 13.1427 5.73291 13.776 6.64124 13.651L9.14957 13.2927C9.49957 13.2427 9.99124 12.9927 10.2496 12.7427L16.8162 6.17602C17.9496 5.04269 18.4829 3.72602 16.8162 2.05936C15.1496 0.392691 13.8329 0.926024 12.6996 2.05936Z" stroke="#5F66E9" stroke-miterlimit="10" stroke-linecap="round" stroke-linejoin="round"/>
<path d="M11.7578 3.00098C12.3161 4.99264 13.8745 6.55098 15.8745 7.11764" stroke="#5F66E9" stroke-miterlimit="10" stroke-linecap="round" stroke-linejoin="round"/>
</svg>
