<svg width="32" height="32" viewBox="0 0 32 32" fill="none" xmlns="http://www.w3.org/2000/svg">
<g id="vuesax/bulk/folder-open">
<g id="folder-open">
<path id="Vector" d="M28.0809 15.7598L27.8676 15.4665C27.4942 15.0131 27.0542 14.6531 26.5476 14.3865C25.8676 13.9998 25.0942 13.7998 24.2942 13.7998H7.69425C6.89425 13.7998 6.13425 13.9998 5.44091 14.3865C4.92091 14.6665 4.45425 15.0531 4.06758 15.5331C3.30758 16.5065 2.94758 17.7065 3.06758 18.9065L3.56091 25.1331C3.73425 27.0131 3.96091 29.3331 8.18758 29.3331H23.8142C28.0409 29.3331 28.2542 27.0131 28.4409 25.1198L28.9342 18.9198C29.0542 17.7998 28.7609 16.6798 28.0809 15.7598ZM19.1876 23.1198H12.8009C12.2809 23.1198 11.8676 22.6931 11.8676 22.1865C11.8676 21.6798 12.2809 21.2531 12.8009 21.2531H19.1876C19.7076 21.2531 20.1209 21.6798 20.1209 22.1865C20.1209 22.7065 19.7076 23.1198 19.1876 23.1198Z" fill="#FF9533"/>
<path id="Vector_2" opacity="0.4" d="M4.50586 15.0798C4.79919 14.8132 5.09253 14.5732 5.43919 14.3865C6.11919 13.9998 6.89253 13.7998 7.69253 13.7998H24.3059C25.1059 13.7998 25.8659 13.9998 26.5592 14.3865C26.9059 14.5732 27.2125 14.8132 27.4925 15.0932V14.3865V13.0932C27.4925 8.33317 26.0392 6.87984 21.2792 6.87984H18.1059C17.5192 6.87984 17.5059 6.8665 17.1592 6.41317L15.5592 4.2665C14.7992 3.27984 14.1992 2.6665 12.2925 2.6665H10.7192C5.95919 2.6665 4.50586 4.11984 4.50586 8.87984V14.3998V15.0798Z" fill="#FF9533"/>
</g>
</g>
</svg>
