<svg width="41" height="40" viewBox="0 0 41 40" fill="none" xmlns="http://www.w3.org/2000/svg">
<path fill-rule="evenodd" clip-rule="evenodd" d="M16.8993 3.02481C17.6458 2.80087 18.4344 2.75454 19.202 2.88953C19.9696 3.02452 20.695 3.33709 21.3203 3.80228C21.9457 4.26747 22.4536 4.87241 22.8036 5.5688C23.1535 6.26519 23.3358 7.03376 23.336 7.81315V32.1865C23.3358 32.9659 23.1535 33.7344 22.8036 34.4308C22.4536 35.1272 21.9457 35.7322 21.3203 36.1973C20.695 36.6625 19.9696 36.9751 19.202 37.1101C18.4344 37.2451 17.6458 37.1988 16.8993 36.9748L6.89928 33.9748C5.86944 33.6659 4.96662 33.0332 4.32474 32.1707C3.68286 31.3081 3.33611 30.2616 3.33594 29.1865V10.8131C3.33611 9.73797 3.68286 8.6915 4.32474 7.82895C4.96662 6.96641 5.86944 6.33374 6.89928 6.02481L16.8993 3.02481ZM25.0026 6.66648C25.0026 6.22445 25.1782 5.80053 25.4908 5.48797C25.8034 5.17541 26.2273 4.99981 26.6693 4.99981H31.6693C32.9954 4.99981 34.2672 5.5266 35.2049 6.46428C36.1426 7.40196 36.6693 8.67373 36.6693 9.99981V11.6665C36.6693 12.1085 36.4937 12.5324 36.1812 12.845C35.8686 13.1575 35.4447 13.3331 35.0027 13.3331C34.5606 13.3331 34.1367 13.1575 33.8242 12.845C33.5116 12.5324 33.336 12.1085 33.336 11.6665V9.99981C33.336 9.55778 33.1604 9.13386 32.8478 8.8213C32.5353 8.50874 32.1114 8.33315 31.6693 8.33315H26.6693C26.2273 8.33315 25.8034 8.15755 25.4908 7.84499C25.1782 7.53243 25.0026 7.10851 25.0026 6.66648ZM35.0027 26.6665C35.4447 26.6665 35.8686 26.8421 36.1812 27.1546C36.4937 27.4672 36.6693 27.8911 36.6693 28.3331V29.9998C36.6693 31.3259 36.1426 32.5977 35.2049 33.5353C34.2672 34.473 32.9954 34.9998 31.6693 34.9998H26.6693C26.2273 34.9998 25.8034 34.8242 25.4908 34.5117C25.1782 34.1991 25.0026 33.7752 25.0026 33.3331C25.0026 32.8911 25.1782 32.4672 25.4908 32.1546C25.8034 31.8421 26.2273 31.6665 26.6693 31.6665H31.6693C32.1114 31.6665 32.5353 31.4909 32.8478 31.1783C33.1604 30.8658 33.336 30.4418 33.336 29.9998V28.3331C33.336 27.8911 33.5116 27.4672 33.8242 27.1546C34.1367 26.8421 34.5606 26.6665 35.0027 26.6665ZM15.0026 18.3331C14.5606 18.3331 14.1367 18.5087 13.8241 18.8213C13.5116 19.1339 13.336 19.5578 13.336 19.9998C13.336 20.4418 13.5116 20.8658 13.8241 21.1783C14.1367 21.4909 14.5606 21.6665 15.0026 21.6665H15.0043C15.4463 21.6665 15.8702 21.4909 16.1828 21.1783C16.4954 20.8658 16.671 20.4418 16.671 19.9998C16.671 19.5578 16.4954 19.1339 16.1828 18.8213C15.8702 18.5087 15.4463 18.3331 15.0043 18.3331H15.0026Z" fill="#292D32"/>
<path d="M35.0033 19.9998L31.6699 23.3332M26.6699 19.9998H35.0033H26.6699ZM35.0033 19.9998L31.6699 16.6665L35.0033 19.9998Z" stroke="#3366FF" stroke-width="3.33333" stroke-linecap="round" stroke-linejoin="round"/>
</svg>
