<svg width="25" height="24" viewBox="0 0 25 24" fill="none" xmlns="http://www.w3.org/2000/svg">
<path fill-rule="evenodd" clip-rule="evenodd" d="M4.5022 6H20.4642C20.9817 6 21.4049 6.427 21.4049 6.949V7.051C21.4049 7.573 20.9817 8 20.4642 8H4.5022C3.98477 8 3.5625 7.573 3.5625 7.051V6.949C3.5625 6.427 3.98477 6 4.5022 6ZM20.4642 11H4.5022C3.98477 11 3.5625 11.427 3.5625 11.949V12.051C3.5625 12.573 3.98477 13 4.5022 13H20.4642C20.9817 13 21.4049 12.573 21.4049 12.051V11.949C21.4049 11.427 20.9817 11 20.4642 11ZM20.4642 16H4.5022C3.98477 16 3.5625 16.427 3.5625 16.949V17.051C3.5625 17.573 3.98477 18 4.5022 18H20.4642C20.9817 18 21.4049 17.573 21.4049 17.051V16.949C21.4049 16.427 20.9817 16 20.4642 16Z" fill="#2E3A59"/>
</svg>
